<svg width="40" height="40" viewBox="0 0 40 40" fill="none" xmlns="http://www.w3.org/2000/svg">
<path d="M18.9221 0V6.34743H21.0781V0H18.9219H18.9221ZM10.1184 1.9075L8.35202 3.14427L11.9921 8.34247L13.7576 7.10567L10.1184 1.9075ZM29.8813 1.9075L26.2423 7.1057L28.008 8.3425L31.648 3.14427L29.8816 1.9075H29.8813ZM19.9996 8.08413C14.7254 8.08413 10.4499 11.2869 10.4499 15.2383L15.8756 31.6699H24.1246L29.5499 15.2383C29.5499 11.287 25.2746 8.08413 20.0001 8.08413H19.9996ZM2.84882 9.9891L2.11218 12.0162L8.07382 14.1867L8.81319 12.1605L2.84868 9.9891H2.84882ZM37.1509 9.9891L31.1864 12.1607L31.9232 14.1871L37.8878 12.0163L37.1509 9.9891ZM8.52519 19.256L2.39518 20.9002L2.95138 22.9813L9.08139 21.3394L8.52529 19.256H8.52519ZM31.4745 19.256L30.9187 21.3394L37.0488 22.981L37.6045 20.8999L31.4745 19.256V19.256ZM15.7553 32.8677V35.7239H24.2449V32.8682H15.7554L15.7553 32.8677ZM15.7553 37.1438V40H24.2449V37.1443H15.7554L15.7553 37.1438Z" fill="#B84143"/>
</svg>
