<svg width="39" height="43" viewBox="0 0 39 43" fill="none" xmlns="http://www.w3.org/2000/svg">
<path d="M8.89957 30.2312C8.89957 31.9864 7.47665 33.4093 5.72139 33.4093C3.96613 33.4093 2.54321 31.9864 2.54321 30.2312C2.54321 28.4759 3.96613 27.053 5.72139 27.053C7.47665 27.053 8.89957 28.4759 8.89957 30.2312Z" fill="#B84143"/>
<circle cx="10.1709" cy="38.4944" r="1.08058" fill="#B84143" stroke="#B84143" stroke-width="0.381381"/>
<circle cx="17.1627" cy="41.6725" r="0.444945" fill="#B84143" stroke="#B84143" stroke-width="0.381381"/>
<path d="M33.0123 10.3798V9.74418C33.0123 9.70972 33.0145 9.6794 33.0155 9.6675C33.0084 7.07841 30.9089 4.98327 28.3181 4.98327C27.9866 4.98327 27.6622 5.01945 27.3442 5.08699L26.8254 5.19717L26.6241 4.70655C25.6633 2.36543 23.3634 0.718155 20.6778 0.718155C18.663 0.718155 16.8642 1.64815 15.6824 3.10224L15.3588 3.50034L14.9014 3.26813C14.1532 2.88834 13.3106 2.66956 12.4145 2.66956C9.55441 2.66956 7.20584 4.84901 6.93232 7.63558L6.87895 8.17925L6.33343 8.20823C3.19435 8.37495 0.679445 10.9481 0.636153 14.1383L33.0123 10.3798ZM33.0123 10.3798H33.6479M33.0123 10.3798H33.6479M33.6479 10.3798H33.6511C36.2528 10.3798 38.3644 12.4918 38.3644 15.0899C38.3644 17.6943 36.2528 19.8031 33.6511 19.8031C33.1351 19.8031 32.6396 19.7168 32.1687 19.5617L31.5407 19.3549L31.3588 19.9905C30.5922 22.6691 28.1339 24.6276 25.2131 24.6276C23.7893 24.6276 22.4808 24.1575 21.4148 23.3696L21.0164 23.0751L20.6335 23.3895C19.2143 24.555 17.4011 25.2537 15.4211 25.2537C12.1387 25.2537 9.30906 23.3316 7.98952 20.5508L7.79453 20.1399M33.6479 10.3798L7.79453 20.1399M7.79453 20.1399L7.34268 20.1918M7.79453 20.1399L7.34268 20.1918M7.34268 20.1918C7.08567 20.2214 6.83336 20.2382 6.5801 20.2354M7.34268 20.1918L6.5801 20.2354M6.5801 20.2354C3.25412 20.1916 0.593229 17.4637 0.636149 14.1387L6.5801 20.2354Z" fill="#B84143" stroke="#B84143" stroke-width="1.27127"/>
<path d="M36.7943 11.4006C38.0052 12.6242 37.1503 14.7949 36.3144 15.7102C34.6745 17.5059 31.6647 17.0864 30.457 16.829C30.1297 16.759 30.0788 16.7813 29.9708 16.848C29.8754 16.9052 29.8309 16.9974 29.7292 17.2199C29.3383 18.0589 28.3372 19.683 26.2173 20.3377C24.0085 21.021 21.9236 19.9817 20.9479 19.3588C20.5792 19.1236 20.5633 19.1173 20.3949 19.1204C20.2265 19.1236 20.058 19.2476 19.8578 19.4033C18.9774 20.0961 16.9625 21.3197 13.8574 21.1418C10.8127 20.967 9.07106 19.0918 8.47674 18.1257C8.36232 17.9413 8.23837 17.7856 8.09853 17.7697C7.93645 17.7538 7.75529 17.9223 7.61863 18.0557C6.32193 19.3175 2.5685 19.6957 1.2146 17.5472C2.58757 19.7529 4.39596 20.843 6.57301 20.8716C6.85904 20.8748 7.13872 20.8557 7.41523 20.8239C8.83587 23.8178 11.8837 25.8899 15.4211 25.8899C17.5536 25.8899 19.5082 25.1367 21.0369 23.8813C22.2065 24.7458 23.6462 25.2638 25.213 25.2638C28.4262 25.2638 31.1276 23.109 31.9698 20.1661C32.5006 20.3408 33.0631 20.4394 33.6511 20.4394C36.6036 20.4394 39 18.0462 39 15.0905C39 13.5205 38.2086 12.3827 36.7943 11.4006Z" fill="#86494A"/>
</svg>
