<svg width="26" height="26" viewBox="0 0 26 26" fill="none" xmlns="http://www.w3.org/2000/svg">
<g clip-path="url(#clip0_276_9)">
<path d="M15.1011 0H6.5C5.63805 0 4.8114 0.34241 4.2019 0.951903C3.59241 1.5614 3.25 2.38805 3.25 3.25V22.75C3.25 23.612 3.59241 24.4386 4.2019 25.0481C4.8114 25.6576 5.63805 26 6.5 26H19.5C20.362 26 21.1886 25.6576 21.7981 25.0481C22.4076 24.4386 22.75 23.612 22.75 22.75V7.64887C22.7499 7.21793 22.5786 6.80468 22.2739 6.5L16.25 0.476125C15.9453 0.171357 15.5321 9.20358e-05 15.1011 0V0ZM15.4375 5.6875V2.4375L20.3125 7.3125H17.0625C16.6315 7.3125 16.2182 7.14129 15.9135 6.83655C15.6087 6.5318 15.4375 6.11848 15.4375 5.6875ZM10.7997 12.4247C10.8753 12.3492 10.965 12.2893 11.0637 12.2484C11.1624 12.2075 11.2682 12.1865 11.375 12.1865C11.4818 12.1865 11.5876 12.2075 11.6863 12.2484C11.785 12.2893 11.8747 12.3492 11.9503 12.4247C12.0258 12.5003 12.0857 12.59 12.1266 12.6887C12.1675 12.7874 12.1885 12.8932 12.1885 13C12.1885 13.1068 12.1675 13.2126 12.1266 13.3113C12.0857 13.41 12.0258 13.4997 11.9503 13.5753L9.27387 16.25L11.9503 18.9247C12.1028 19.0773 12.1885 19.2842 12.1885 19.5C12.1885 19.7158 12.1028 19.9227 11.9503 20.0753C11.7977 20.2278 11.5908 20.3135 11.375 20.3135C11.1592 20.3135 10.9523 20.2278 10.7997 20.0753L7.54975 16.8253C7.47408 16.7498 7.41405 16.6601 7.37309 16.5614C7.33213 16.4627 7.31105 16.3569 7.31105 16.25C7.31105 16.1431 7.33213 16.0373 7.37309 15.9386C7.41405 15.8399 7.47408 15.7502 7.54975 15.6747L10.7997 12.4247ZM15.2003 12.4247L18.4503 15.6747C18.5259 15.7502 18.5859 15.8399 18.6269 15.9386C18.6679 16.0373 18.689 16.1431 18.689 16.25C18.689 16.3569 18.6679 16.4627 18.6269 16.5614C18.5859 16.6601 18.5259 16.7498 18.4503 16.8253L15.2003 20.0753C15.0477 20.2278 14.8408 20.3135 14.625 20.3135C14.4092 20.3135 14.2023 20.2278 14.0497 20.0753C13.8972 19.9227 13.8115 19.7158 13.8115 19.5C13.8115 19.2842 13.8972 19.0773 14.0497 18.9247L16.7261 16.25L14.0497 13.5753C13.9742 13.4997 13.9143 13.41 13.8734 13.3113C13.8325 13.2126 13.8115 13.1068 13.8115 13C13.8115 12.8932 13.8325 12.7874 13.8734 12.6887C13.9143 12.59 13.9742 12.5003 14.0497 12.4247C14.1253 12.3492 14.215 12.2893 14.3137 12.2484C14.4124 12.2075 14.5182 12.1865 14.625 12.1865C14.7318 12.1865 14.8376 12.2075 14.9363 12.2484C15.035 12.2893 15.1247 12.3492 15.2003 12.4247Z" fill="#165EAD"/>
</g>
<defs>
<clipPath id="clip0_276_9">
<rect width="26" height="26" fill="white"/>
</clipPath>
</defs>
</svg>
