<svg width="36" height="36" viewBox="0 0 36 36" fill="none" xmlns="http://www.w3.org/2000/svg">
<path d="M17.0025 13.9224C17.0725 14.1149 17.125 14.2899 17.125 14.4999V23.6349C17.125 24.5099 16.7925 25.3499 16.1975 25.9974L11.315 31.3349L5.365 25.3849L7.5 23.2499L12.4 2.00492C12.5068 1.5375 12.7821 1.12584 13.1734 0.848623C13.5646 0.571407 14.0442 0.44808 14.5206 0.502217C14.997 0.556354 15.4368 0.784157 15.7558 1.14208C16.0748 1.50001 16.2508 1.96295 16.25 2.44242V11.1224C15.9644 11.0462 15.6706 11.0051 15.375 10.9999C13.45 10.9999 11.875 12.5749 11.875 14.4999V19.7499C11.875 20.2399 12.26 20.6249 12.75 20.6249C13.24 20.6249 13.625 20.2399 13.625 19.7499V14.4999C13.625 13.5374 14.4125 12.7499 15.375 12.7499C15.7075 12.7499 15.9875 12.8724 16.25 13.0299C16.46 13.1524 16.6175 13.3099 16.775 13.4849C16.8275 13.5549 16.88 13.6249 16.915 13.7124C16.95 13.7824 16.985 13.8524 17.0025 13.9224ZM0.5 30.2499L7.5 35.4999L9.5475 33.2774L3.51 27.2399L0.5 30.2499ZM28.5 23.2499L23.6 2.00492C23.4932 1.5375 23.2179 1.12584 22.8266 0.848623C22.4354 0.571407 21.9558 0.44808 21.4794 0.502217C21.003 0.556354 20.5632 0.784157 20.2442 1.14208C19.9252 1.50001 19.7492 1.96295 19.75 2.44242V11.1224C20.03 11.0524 20.3275 10.9999 20.625 10.9999C22.55 10.9999 24.125 12.5749 24.125 14.4999V19.7499C24.125 20.2399 23.74 20.6249 23.25 20.6249C22.76 20.6249 22.375 20.2399 22.375 19.7499V14.4999C22.375 13.5374 21.5875 12.7499 20.625 12.7499C20.2925 12.7499 20.0125 12.8724 19.75 13.0299C19.54 13.1524 19.3825 13.3099 19.2425 13.4849C19.19 13.5549 19.12 13.6249 19.085 13.7124C19.05 13.7824 19.015 13.8524 18.9975 13.9224C18.9275 14.1149 18.875 14.2899 18.875 14.4999V23.6349C18.875 24.5099 19.2075 25.3499 19.8025 25.9974L24.685 31.3349L30.635 25.3849L28.5 23.2499ZM32.49 27.2399L26.4525 33.2774L28.5 35.4999L35.5 30.2499L32.49 27.2399Z" fill="#B84143"/>
</svg>
