<svg width="42" height="42" viewBox="0 0 42 42" fill="none" xmlns="http://www.w3.org/2000/svg">
<path d="M20.0025 16.9224C20.0725 17.1149 20.125 17.2899 20.125 17.4999V26.6349C20.125 27.5099 19.7925 28.3499 19.1975 28.9974L14.315 34.3349L8.365 28.3849L10.5 26.2499L15.4 5.00492C15.5068 4.5375 15.7821 4.12584 16.1734 3.84862C16.5646 3.57141 17.0442 3.44808 17.5206 3.50222C17.997 3.55635 18.4368 3.78416 18.7558 4.14208C19.0748 4.50001 19.2508 4.96295 19.25 5.44242V14.1224C18.9644 14.0462 18.6706 14.0051 18.375 13.9999C16.45 13.9999 14.875 15.5749 14.875 17.4999V22.7499C14.875 23.2399 15.26 23.6249 15.75 23.6249C16.24 23.6249 16.625 23.2399 16.625 22.7499V17.4999C16.625 16.5374 17.4125 15.7499 18.375 15.7499C18.7075 15.7499 18.9875 15.8724 19.25 16.0299C19.46 16.1524 19.6175 16.3099 19.775 16.4849C19.8275 16.5549 19.88 16.6249 19.915 16.7124C19.95 16.7824 19.985 16.8524 20.0025 16.9224ZM3.5 33.2499L10.5 38.4999L12.5475 36.2774L6.51 30.2399L3.5 33.2499ZM31.5 26.2499L26.6 5.00492C26.4932 4.5375 26.2179 4.12584 25.8266 3.84862C25.4354 3.57141 24.9558 3.44808 24.4794 3.50222C24.003 3.55635 23.5632 3.78416 23.2442 4.14208C22.9252 4.50001 22.7492 4.96295 22.75 5.44242V14.1224C23.03 14.0524 23.3275 13.9999 23.625 13.9999C25.55 13.9999 27.125 15.5749 27.125 17.4999V22.7499C27.125 23.2399 26.74 23.6249 26.25 23.6249C25.76 23.6249 25.375 23.2399 25.375 22.7499V17.4999C25.375 16.5374 24.5875 15.7499 23.625 15.7499C23.2925 15.7499 23.0125 15.8724 22.75 16.0299C22.54 16.1524 22.3825 16.3099 22.2425 16.4849C22.19 16.5549 22.12 16.6249 22.085 16.7124C22.05 16.7824 22.015 16.8524 21.9975 16.9224C21.9275 17.1149 21.875 17.2899 21.875 17.4999V26.6349C21.875 27.5099 22.2075 28.3499 22.8025 28.9974L27.685 34.3349L33.635 28.3849L31.5 26.2499ZM35.49 30.2399L29.4525 36.2774L31.5 38.4999L38.5 33.2499L35.49 30.2399Z" fill="#B84143"/>
</svg>
