<svg width="27" height="26" viewBox="0 0 27 26" fill="none" xmlns="http://www.w3.org/2000/svg">
<g clip-path="url(#clip0_276_4)">
<path fill-rule="evenodd" clip-rule="evenodd" d="M14.3021 19.2081C12.0118 19.2081 9.68506 17.8486 8.32712 16.0491C1.81217 16.0491 1.61523 25.3562 1.61523 25.3562H26.9873C26.9873 25.3562 27.4987 16.0078 20.1722 16.0078C18.8158 17.8295 16.5923 19.2081 14.3021 19.2081Z" fill="#165EAD"/>
<path fill-rule="evenodd" clip-rule="evenodd" d="M19.7592 8.05079C19.7592 10.7286 17.3149 15.849 14.2973 15.849C11.2844 15.849 8.8385 10.727 8.8385 8.05079C8.8385 5.37461 11.2828 3.2019 14.2973 3.2019C17.3149 3.20349 19.7592 5.3762 19.7592 8.05079Z" fill="#165EAD"/>
<path fill-rule="evenodd" clip-rule="evenodd" d="M22.1956 5.73985C22.1956 5.23797 21.4968 4.83297 20.6296 4.82979V3.79585C20.6296 3.64179 20.6884 0.0349121 14.3164 0.0349121C7.94757 0.0349121 8.00634 3.64179 8.00634 3.79585V4.86632C7.99045 4.86632 7.97775 4.86156 7.96345 4.86156C7.10104 4.86156 6.40698 5.26021 6.40698 5.75415V10.1281C6.40698 10.6189 7.10263 11.0191 7.96345 11.0191C8.82428 11.0191 9.5231 10.6189 9.5231 10.1281V5.75415C9.5231 5.68585 9.48022 5.62391 9.45481 5.56038V4.36762C9.45481 4.25803 8.99739 1.53579 14.3164 1.53579C19.637 1.53579 19.0843 4.25803 19.0843 4.36762V5.62391C19.0747 5.66362 19.0446 5.69856 19.0446 5.73985V10.2139C19.0446 10.7174 19.7482 11.1256 20.6201 11.1256C20.6392 11.1256 20.6535 11.1192 20.6725 11.1192V12.7535H19.1097V14.2941H22.2115L22.1956 5.73985Z" fill="#165EAD"/>
</g>
<defs>
<clipPath id="clip0_276_4">
<rect width="27" height="25.4118" fill="white"/>
</clipPath>
</defs>
</svg>
