<svg width="26" height="26" viewBox="0 0 26 26" fill="none" xmlns="http://www.w3.org/2000/svg">
<path fill-rule="evenodd" clip-rule="evenodd" d="M13.3021 19.2081C11.0118 19.2081 8.68506 17.8486 7.32712 16.0491C0.812175 16.0491 0.615234 25.3562 0.615234 25.3562H25.9873C25.9873 25.3562 26.4987 16.0078 19.1722 16.0078C17.8158 17.8295 15.5923 19.2081 13.3021 19.2081Z" fill="#165EAD"/>
<path fill-rule="evenodd" clip-rule="evenodd" d="M18.7592 8.05079C18.7592 10.7286 16.3149 15.849 13.2973 15.849C10.2844 15.849 7.8385 10.727 7.8385 8.05079C7.8385 5.37461 10.2828 3.2019 13.2973 3.2019C16.3149 3.20349 18.7592 5.3762 18.7592 8.05079Z" fill="#165EAD"/>
<path fill-rule="evenodd" clip-rule="evenodd" d="M21.1956 5.73985C21.1956 5.23797 20.4968 4.83297 19.6296 4.82979V3.79585C19.6296 3.64179 19.6884 0.0349121 13.3164 0.0349121C6.94757 0.0349121 7.00634 3.64179 7.00634 3.79585V4.86632C6.99045 4.86632 6.97775 4.86156 6.96345 4.86156C6.10104 4.86156 5.40698 5.26021 5.40698 5.75415V10.1281C5.40698 10.6189 6.10263 11.0191 6.96345 11.0191C7.82428 11.0191 8.5231 10.6189 8.5231 10.1281V5.75415C8.5231 5.68585 8.48022 5.62391 8.45481 5.56038V4.36762C8.45481 4.25803 7.99739 1.53579 13.3164 1.53579C18.637 1.53579 18.0843 4.25803 18.0843 4.36762V5.62391C18.0747 5.66362 18.0446 5.69856 18.0446 5.73985V10.2139C18.0446 10.7174 18.7482 11.1256 19.6201 11.1256C19.6392 11.1256 19.6535 11.1192 19.6725 11.1192V12.7535H18.1097V14.2941H21.2115L21.1956 5.73985Z" fill="#165EAD"/>
</svg>
