<svg width="28" height="28" viewBox="0 0 28 28" fill="none" xmlns="http://www.w3.org/2000/svg">
<path d="M13.9999 3.50354C13.5408 3.50354 13.0861 3.59398 12.6619 3.7697C12.2377 3.94541 11.8522 4.20296 11.5275 4.52764C11.2028 4.85232 10.9453 5.23777 10.7696 5.66199C10.5939 6.0862 10.5034 6.54087 10.5034 7.00004C10.5034 7.45921 10.5939 7.91388 10.7696 8.33809C10.9453 8.76231 11.2028 9.14776 11.5275 9.47244C11.8522 9.79712 12.2377 10.0547 12.6619 10.2304C13.0861 10.4061 13.5408 10.4965 13.9999 10.4965C14.9272 10.4965 15.8166 10.1282 16.4723 9.47244C17.128 8.81672 17.4964 7.92737 17.4964 7.00004C17.4964 6.07271 17.128 5.18336 16.4723 4.52764C15.8166 3.87192 14.9272 3.50354 13.9999 3.50354Z" fill="#4358A7"/>
<path d="M21.875 5.25C21.1788 5.25 20.5111 5.52656 20.0188 6.01884C19.5266 6.51113 19.25 7.17881 19.25 7.875C19.25 8.57119 19.5266 9.23887 20.0188 9.73116C20.5111 10.2234 21.1788 10.5 21.875 10.5C22.5712 10.5 23.2389 10.2234 23.7312 9.73116C24.2234 9.23887 24.5 8.57119 24.5 7.875C24.5 7.17881 24.2234 6.51113 23.7312 6.01884C23.2389 5.52656 22.5712 5.25 21.875 5.25Z" fill="#4358A7"/>
<path d="M6.125 5.25C5.42881 5.25 4.76113 5.52656 4.26884 6.01884C3.77656 6.51113 3.5 7.17881 3.5 7.875C3.5 8.57119 3.77656 9.23887 4.26884 9.73116C4.76113 10.2234 5.42881 10.5 6.125 10.5C6.82119 10.5 7.48887 10.2234 7.98116 9.73116C8.47344 9.23887 8.75 8.57119 8.75 7.875C8.75 7.17881 8.47344 6.51113 7.98116 6.01884C7.48887 5.52656 6.82119 5.25 6.125 5.25Z" fill="#4358A7"/>
<path d="M8.75 13.9877C8.75323 13.5257 8.93904 13.0838 9.26687 12.7582C9.59471 12.4327 10.038 12.25 10.5 12.25H17.5C17.9641 12.25 18.4092 12.4344 18.7374 12.7626C19.0656 13.0908 19.25 13.5359 19.25 14V19.25C19.2499 19.8008 19.1637 20.3481 18.9945 20.8722C18.607 22.06 17.8088 23.0707 16.7432 23.7228C15.6775 24.375 14.4143 24.6259 13.1803 24.4305C11.9464 24.2351 10.8225 23.6062 10.0105 22.6567C9.19849 21.7072 8.75158 20.4993 8.75 19.25V14V13.9877Z" fill="#4358A7"/>
<path d="M7 14C7 13.3612 7.16975 12.7645 7.469 12.25H3.5C3.03587 12.25 2.59075 12.4344 2.26256 12.7626C1.93437 13.0908 1.75 13.5359 1.75 14V18.375C1.74976 19.0913 1.9254 19.7967 2.26148 20.4292C2.59756 21.0618 3.08381 21.6021 3.67752 22.0028C4.27124 22.4035 4.95426 22.6523 5.6666 22.7274C6.37894 22.8024 7.09881 22.7014 7.763 22.4333C7.25931 21.4473 6.99776 20.3554 7 19.2482V14Z" fill="#4358A7"/>
<path d="M21.0001 14V19.25C21.0001 20.3962 20.7253 21.4778 20.2371 22.4333C20.9012 22.7014 21.6211 22.8024 22.3335 22.7274C23.0458 22.6523 23.7288 22.4035 24.3225 22.0028C24.9163 21.6021 25.4025 21.0618 25.7386 20.4292C26.0747 19.7967 26.2503 19.0913 26.2501 18.375V14C26.2501 13.5359 26.0657 13.0908 25.7375 12.7626C25.4093 12.4344 24.9642 12.25 24.5001 12.25H20.5311C20.8286 12.7645 21.0001 13.3612 21.0001 14Z" fill="#4358A7"/>
</svg>
